<?xml version="1.0" standalone="no"?>
<!DOCTYPE svg PUBLIC "-//W3C//DTD SVG 20010904//EN"
 "http://www.w3.org/TR/2001/REC-SVG-20010904/DTD/svg10.dtd">
<svg version="1.0" xmlns="http://www.w3.org/2000/svg"
 width="260.000000pt" height="260.000000pt" viewBox="0 0 260.000000 260.000000"
 preserveAspectRatio="xMidYMid meet">
<metadata>
Created by potrace 1.14, written by Peter Selinger 2001-2017
</metadata>
<g transform="translate(0.000000,260.000000) scale(0.100000,-0.100000)"
fill="#000000" stroke="none">
<path d="M1229 2596 c-2 -2 -38 -6 -79 -10 -299 -24 -630 -202 -839 -451 -137
-163 -224 -335 -269 -530 -29 -126 -35 -173 -35 -310 1 -472 251 -897 665
-1129 122 -68 290 -126 413 -142 28 -3 59 -8 70 -10 28 -6 239 -5 305 1 203
19 447 118 621 251 402 306 585 805 484 1313 -70 352 -331 695 -660 868 -139
73 -304 124 -449 138 -74 8 -223 15 -227 11z"/>
</g>
</svg>
